<svg xmlns="http://www.w3.org/2000/svg" fill="none" viewBox="0 0 246 22"><path fill="#fff" d="M.904 21V1.12h4.592v15.848h9.632V21H.904zm24.732.168c-1.494 0-2.847-.28-4.06-.84a10.272 10.272 0 01-3.108-2.296 10.796 10.796 0 01-1.988-3.248 10.366 10.366 0 01-.7-3.752c0-1.325.242-2.585.728-3.78A10.685 10.685 0 0118.58 4.06a9.758 9.758 0 013.164-2.24c1.213-.541 2.538-.812 3.976-.812 1.474 0 2.809.29 4.004.868a9.3 9.3 0 013.107 2.296c.878.97 1.55 2.063 2.016 3.276a10 10 0 01.7 3.668 9.948 9.948 0 01-.727 3.78 10.341 10.341 0 01-2.072 3.22 10.365 10.365 0 01-3.164 2.24c-1.195.541-2.511.812-3.948.812zm-5.18-10.08c0 .765.111 1.512.335 2.24.224.71.551 1.344.98 1.904a5.04 5.04 0 001.652 1.344c.654.336 1.4.504 2.24.504.878 0 1.643-.168 2.296-.504a4.91 4.91 0 001.625-1.4 6.03 6.03 0 00.951-1.932 7.482 7.482 0 00.337-2.212c0-.765-.113-1.503-.337-2.212a5.826 5.826 0 00-1.008-1.904 4.612 4.612 0 00-1.652-1.344c-.653-.317-1.39-.476-2.212-.476-.877 0-1.642.168-2.296.504a4.983 4.983 0 00-1.623 1.372 6.084 6.084 0 00-.98 1.932 7.816 7.816 0 00-.308 2.184zM38.2 21V1.12h8.96a5.68 5.68 0 012.577.588 6.265 6.265 0 012.072 1.54 6.983 6.983 0 011.344 2.156c.336.803.504 1.615.504 2.436s-.13 1.605-.392 2.352a6.74 6.74 0 01-1.12 1.988 6.127 6.127 0 01-1.736 1.428L54.777 21h-5.068L45.9 14.588h-3.108V21H38.2zm4.593-10.416h4.2c.373 0 .7-.112.98-.336.299-.243.541-.57.728-.98.187-.41.28-.887.28-1.428 0-.541-.112-1.008-.336-1.4-.205-.41-.467-.728-.784-.952a1.719 1.719 0 00-1.008-.336h-4.06v5.432zm28.137 6.384V21H56.96V1.12h13.72v4.032h-9.13v3.864h7.84v3.724h-7.84v4.228h9.38zM89.4 21V9.156l-4.284 8.624h-2.52l-4.284-8.624V21h-4.591V1.12h4.983l5.153 10.388 5.18-10.388h4.956V21H89.4zm8.41 0V1.12h4.592V21H97.81zm8.395 0V1.12h8.484c.952 0 1.82.196 2.604.588a6.277 6.277 0 012.072 1.54 6.99 6.99 0 011.344 2.156c.317.803.476 1.624.476 2.464a6.872 6.872 0 01-.812 3.248 6.696 6.696 0 01-2.212 2.52c-.933.635-2.044.952-3.332.952h-4.032V21h-4.592zm4.592-10.416h3.752c.355 0 .681-.103.98-.308.298-.205.541-.513.728-.924.187-.41.28-.915.28-1.512 0-.616-.112-1.12-.336-1.512-.205-.41-.476-.71-.812-.896a1.958 1.958 0 00-1.008-.28h-3.584v5.432zm24.781-3.64c-.056-.093-.252-.233-.588-.42a12.215 12.215 0 00-2.912-1.232 6.592 6.592 0 00-1.792-.252c-.784 0-1.391.14-1.82.42-.429.261-.644.672-.644 1.232 0 .448.159.803.476 1.064.336.261.812.495 1.428.7.616.187 1.372.41 2.268.672 1.269.336 2.371.747 3.304 1.232.933.467 1.643 1.073 2.128 1.82.504.747.756 1.736.756 2.968 0 1.12-.205 2.072-.616 2.856a5.248 5.248 0 01-1.68 1.876 7.431 7.431 0 01-2.38 1.036 12.39 12.39 0 01-2.772.308c-.971 0-1.969-.093-2.996-.28a18.661 18.661 0 01-2.912-.84 14.008 14.008 0 01-2.576-1.344l2.016-4.004c.075.093.317.27.728.532.411.243.915.504 1.512.784.616.261 1.297.495 2.044.7a8.521 8.521 0 002.268.308c.821 0 1.428-.13 1.82-.392.411-.261.616-.625.616-1.092 0-.504-.215-.896-.644-1.176-.411-.28-.98-.532-1.708-.756-.709-.224-1.531-.476-2.464-.756-1.213-.373-2.221-.793-3.024-1.26-.784-.467-1.372-1.036-1.764-1.708-.373-.672-.56-1.512-.56-2.52 0-1.4.327-2.576.98-3.528a6.191 6.191 0 012.688-2.184c1.12-.504 2.343-.756 3.668-.756.933 0 1.829.112 2.688.336.877.224 1.689.504 2.436.84.765.336 1.447.672 2.044 1.008l-2.016 3.808zm13.839 14.224c-1.587 0-2.94-.261-4.06-.784-1.12-.541-2.035-1.27-2.744-2.184a9.78 9.78 0 01-1.54-3.164 14.526 14.526 0 01-.476-3.752V1.12h4.592v10.164c0 .747.074 1.475.224 2.184.149.69.392 1.307.728 1.848.336.541.765.97 1.288 1.288.541.317 1.204.476 1.988.476.802 0 1.474-.159 2.016-.476a3.79 3.79 0 001.288-1.316c.317-.56.55-1.185.7-1.876.149-.69.224-1.4.224-2.128V1.12h4.592v10.164c0 1.381-.178 2.67-.532 3.864-.336 1.195-.859 2.25-1.568 3.164-.71.896-1.624 1.596-2.744 2.1-1.102.504-2.427.756-3.976.756zM177.475 21V9.156l-4.284 8.624h-2.52l-4.284-8.624V21h-4.592V1.12h4.984l5.152 10.388 5.18-10.388h4.956V21h-4.592zm8.018 0v-4.564h3.668V21h-3.668z"/><path fill="#42A9ED" d="M197.176 9.632V21h-4.592V1.12h3.64l9.212 11.704V1.12h4.592V21h-3.752l-9.1-11.368zm30.626 7.336V21H213.83V1.12h13.72v4.032h-9.128v3.864h7.84v3.724h-7.84v4.228h9.38zM245.74 5.152h-6.048V21H235.1V5.152h-6.076V1.12h16.716v4.032z"/></svg>