<svg width="246" height="22" viewBox="0 0 246 22" fill="none" xmlns="http://www.w3.org/2000/svg">
<path d="M0.904053 21V1.12H5.49605V16.968H15.1281V21H0.904053Z" fill="white"/>
<path d="M25.6355 21.168C24.1422 21.168 22.7888 20.888 21.5755 20.328C20.3808 19.7493 19.3448 18.984 18.4675 18.032C17.6088 17.0613 16.9462 15.9787 16.4795 14.784C16.0128 13.5707 15.7795 12.32 15.7795 11.032C15.7795 9.70666 16.0222 8.44666 16.5075 7.252C17.0115 6.05733 17.7022 4.99333 18.5795 4.06C19.4755 3.108 20.5302 2.36133 21.7435 1.81999C22.9568 1.27866 24.2822 1.008 25.7195 1.008C27.1942 1.008 28.5288 1.29733 29.7235 1.876C30.9368 2.436 31.9728 3.20133 32.8315 4.172C33.7088 5.14266 34.3808 6.23466 34.8475 7.448C35.3142 8.64266 35.5475 9.86533 35.5475 11.116C35.5475 12.4413 35.3048 13.7013 34.8195 14.896C34.3342 16.0907 33.6435 17.164 32.7475 18.116C31.8515 19.0493 30.7968 19.796 29.5835 20.356C28.3888 20.8973 27.0728 21.168 25.6355 21.168ZM20.4555 11.088C20.4555 11.8533 20.5675 12.6 20.7915 13.328C21.0155 14.0373 21.3422 14.672 21.7715 15.232C22.2195 15.792 22.7702 16.24 23.4235 16.576C24.0768 16.912 24.8235 17.08 25.6635 17.08C26.5408 17.08 27.3062 16.912 27.9595 16.576C28.6128 16.2213 29.1542 15.7547 29.5835 15.176C30.0128 14.5973 30.3302 13.9533 30.5355 13.244C30.7595 12.516 30.8715 11.7787 30.8715 11.032C30.8715 10.2667 30.7595 9.52933 30.5355 8.82C30.3115 8.11066 29.9755 7.476 29.5275 6.916C29.0795 6.33733 28.5288 5.88933 27.8755 5.572C27.2222 5.25466 26.4848 5.096 25.6635 5.096C24.7862 5.096 24.0208 5.264 23.3675 5.6C22.7328 5.936 22.1915 6.39333 21.7435 6.972C21.3142 7.532 20.9875 8.176 20.7635 8.904C20.5582 9.61333 20.4555 10.3413 20.4555 11.088Z" fill="white"/>
<path d="M38.2009 21V1.12H47.1609C48.0943 1.12 48.9529 1.316 49.7369 1.708C50.5396 2.08133 51.2303 2.59466 51.8089 3.248C52.3876 3.88266 52.8356 4.60133 53.1529 5.404C53.4889 6.20666 53.6569 7.01866 53.6569 7.84C53.6569 8.66133 53.5263 9.44533 53.2649 10.192C53.0036 10.92 52.6303 11.5827 52.1449 12.18C51.6596 12.7587 51.0809 13.2347 50.4089 13.608L54.7769 21H49.7089L45.9009 14.588H42.7929V21H38.2009ZM42.7929 10.584H46.9929C47.3663 10.584 47.6929 10.472 47.9729 10.248C48.2716 10.0053 48.5143 9.67866 48.7009 9.268C48.8876 8.85733 48.9809 8.38133 48.9809 7.84C48.9809 7.29866 48.8689 6.832 48.6449 6.44C48.4396 6.02933 48.1783 5.712 47.8609 5.488C47.5436 5.264 47.2076 5.152 46.8529 5.152H42.7929V10.584Z" fill="white"/>
<path d="M70.9307 16.968V21H56.9587V1.12H70.6787V5.152H61.5507V9.016H69.3907V12.74H61.5507V16.968H70.9307Z" fill="white"/>
<path d="M89.4005 21V9.156L85.1165 17.78H82.5965L78.3125 9.156V21H73.7205V1.12H78.7045L83.8565 11.508L89.0365 1.12H93.9925V21H89.4005Z" fill="white"/>
<path d="M97.8103 21V1.12H102.402V21H97.8103Z" fill="white"/>
<path d="M106.205 21V1.12H114.689C115.641 1.12 116.509 1.316 117.293 1.708C118.095 2.08133 118.786 2.59466 119.365 3.248C119.944 3.88266 120.391 4.60133 120.709 5.404C121.026 6.20666 121.185 7.028 121.185 7.868C121.185 9.00666 120.914 10.0893 120.373 11.116C119.85 12.1427 119.113 12.9827 118.161 13.636C117.228 14.2707 116.117 14.588 114.829 14.588H110.797V21H106.205ZM110.797 10.584H114.549C114.904 10.584 115.23 10.4813 115.529 10.276C115.827 10.0707 116.07 9.76266 116.257 9.352C116.444 8.94133 116.537 8.43733 116.537 7.84C116.537 7.224 116.425 6.72 116.201 6.328C115.996 5.91733 115.725 5.61866 115.389 5.43199C115.071 5.24533 114.736 5.152 114.381 5.152H110.797V10.584Z" fill="white"/>
<path d="M135.578 6.944C135.522 6.85066 135.326 6.71066 134.99 6.524C134.654 6.31866 134.234 6.104 133.73 5.88C133.226 5.656 132.675 5.46 132.078 5.292C131.481 5.12399 130.883 5.04 130.286 5.04C129.502 5.04 128.895 5.18 128.466 5.46C128.037 5.72133 127.822 6.132 127.822 6.692C127.822 7.14 127.981 7.49466 128.298 7.756C128.634 8.01733 129.11 8.25066 129.726 8.456C130.342 8.64266 131.098 8.86666 131.994 9.128C133.263 9.464 134.365 9.87466 135.298 10.36C136.231 10.8267 136.941 11.4333 137.426 12.18C137.93 12.9267 138.182 13.916 138.182 15.148C138.182 16.268 137.977 17.22 137.566 18.004C137.155 18.7693 136.595 19.3947 135.886 19.88C135.195 20.3467 134.402 20.692 133.506 20.916C132.61 21.1213 131.686 21.224 130.734 21.224C129.763 21.224 128.765 21.1307 127.738 20.944C126.73 20.7387 125.759 20.4587 124.826 20.104C123.893 19.7307 123.034 19.2827 122.25 18.76L124.266 14.756C124.341 14.8493 124.583 15.0267 124.994 15.288C125.405 15.5307 125.909 15.792 126.506 16.072C127.122 16.3333 127.803 16.5667 128.55 16.772C129.297 16.9773 130.053 17.08 130.818 17.08C131.639 17.08 132.246 16.9493 132.638 16.688C133.049 16.4267 133.254 16.0627 133.254 15.596C133.254 15.092 133.039 14.7 132.61 14.42C132.199 14.14 131.63 13.888 130.902 13.664C130.193 13.44 129.371 13.188 128.438 12.908C127.225 12.5347 126.217 12.1147 125.414 11.648C124.63 11.1813 124.042 10.612 123.65 9.94C123.277 9.268 123.09 8.428 123.09 7.42C123.09 6.02 123.417 4.844 124.07 3.892C124.742 2.92133 125.638 2.19333 126.758 1.708C127.878 1.204 129.101 0.951996 130.426 0.951996C131.359 0.951996 132.255 1.064 133.114 1.28799C133.991 1.512 134.803 1.792 135.55 2.128C136.315 2.464 136.997 2.8 137.594 3.136L135.578 6.944Z" fill="white"/>
<path d="M149.417 21.168C147.83 21.168 146.477 20.9067 145.357 20.384C144.237 19.8427 143.322 19.1147 142.613 18.2C141.922 17.2667 141.409 16.212 141.073 15.036C140.755 13.8413 140.597 12.5907 140.597 11.284V1.12H145.189V11.284C145.189 12.0307 145.263 12.7587 145.413 13.468C145.562 14.1587 145.805 14.7747 146.141 15.316C146.477 15.8573 146.906 16.2867 147.429 16.604C147.97 16.9213 148.633 17.08 149.417 17.08C150.219 17.08 150.891 16.9213 151.433 16.604C151.974 16.268 152.403 15.8293 152.721 15.288C153.038 14.728 153.271 14.1027 153.421 13.412C153.57 12.7213 153.645 12.012 153.645 11.284V1.12H158.237V11.284C158.237 12.6653 158.059 13.9533 157.705 15.148C157.369 16.3427 156.846 17.3973 156.137 18.312C155.427 19.208 154.513 19.908 153.393 20.412C152.291 20.916 150.966 21.168 149.417 21.168Z" fill="white"/>
<path d="M177.475 21V9.156L173.191 17.78H170.671L166.387 9.156V21H161.795V1.12H166.779L171.931 11.508L177.111 1.12H182.067V21H177.475Z" fill="white"/>
<path d="M185.493 21V16.436H189.161V21H185.493Z" fill="white"/>
<path d="M197.176 9.632V21H192.584V1.12H196.224L205.436 12.824V1.12H210.028V21H206.276L197.176 9.632Z" fill="#42A9ED"/>
<path d="M227.802 16.968V21H213.83V1.12H227.55V5.152H218.422V9.016H226.262V12.74H218.422V16.968H227.802Z" fill="#42A9ED"/>
<path d="M245.74 5.152H239.692V21H235.1V5.152H229.024V1.12H245.74V5.152Z" fill="#42A9ED"/>
</svg>
