<svg xmlns="http://www.w3.org/2000/svg" fill="none" viewBox="0 0 100 100"><circle cx="50" cy="50" r="47.5" fill="#3E9CDC" stroke="#286690" stroke-width="5"/><path fill="#fff" d="M45.993 52.372v-1.285c0-.362.282-.643.643-.643H60.78c.361 0 .643.281.643.643v1.285a.635.635 0 01-.643.643H46.636a.635.635 0 01-.643-.643zm.643 3.215H60.78c.361 0 .643.281.643.643v1.285a.635.635 0 01-.643.643H46.636a.635.635 0 01-.643-.643V56.23c0-.362.282-.643.643-.643zm0 5.143H60.78c.361 0 .643.28.643.642v1.286a.635.635 0 01-.643.643H46.636a.635.635 0 01-.643-.643v-1.286c0-.361.282-.642.643-.642z"/><path fill="#fff" fill-rule="evenodd" d="M38.279 44.315a7.415 7.415 0 117.173-9.3h12.756c1.064 0 2.55.623 3.294 1.366l6.268 6.268c.743.743 1.366 2.23 1.366 3.295v23.143a1.93 1.93 0 01-1.928 1.928h-27a1.93 1.93 0 01-1.93-1.928V44.315zm2.571-.458a7.421 7.421 0 004.813-6.27h10.616v8.357a1.93 1.93 0 001.928 1.928h8.358v20.572H40.85V43.857zm18.824-5.668c-.14-.14-.482-.321-.824-.442v7.554h7.554c-.12-.342-.301-.683-.442-.824l-6.288-6.288zm-20.395-.29h4v-2h-4v-4h-2v4h-4v2h4v4h2v-4z" clip-rule="evenodd"/></svg>