<svg xmlns="http://www.w3.org/2000/svg" fill="none" viewBox="0 0 100 100"><circle cx="50" cy="50" r="47.5" fill="#3E9CDC" stroke="#286690" stroke-width="5"/><path fill="#fff" d="M66.795 62.107a.661.661 0 01-.643.643H36.581a.661.661 0 01-.643-.643V46.68c.422.482.884.924 1.386 1.325 2.873 2.21 5.766 4.46 8.558 6.79 1.507 1.266 3.375 2.813 5.465 2.813h.04c2.089 0 3.957-1.547 5.464-2.812 2.792-2.33 5.685-4.58 8.558-6.79.502-.402.964-.844 1.386-1.326v15.428zm0-21.114c0 1.708-1.647 3.938-2.953 4.962a1287.32 1287.32 0 00-8.056 6.369c-1.065.864-2.993 2.712-4.4 2.712h-.04c-1.406 0-3.334-1.849-4.4-2.712-2.67-2.13-5.363-4.26-8.055-6.369-1.808-1.426-2.953-3.415-2.953-5.705a.66.66 0 01.643-.643h29.571c.764 0 .643.884.643 1.386zm2.572-.743a3.224 3.224 0 00-3.215-3.214H36.581a3.224 3.224 0 00-3.214 3.214v21.857a3.224 3.224 0 003.214 3.214h29.571a3.224 3.224 0 003.215-3.214V40.25z"/></svg>