<svg xmlns="http://www.w3.org/2000/svg" fill="none" viewBox="0 0 21 20"><path fill="#3E9CDC" d="M16.75 14.85a.275.275 0 01-.267.267H4.16a.275.275 0 01-.268-.268V8.421c.176.2.369.385.578.552a112.81 112.81 0 013.566 2.83c.627.527 1.406 1.171 2.276 1.171h.017c.87 0 1.65-.644 2.277-1.172a114.783 114.783 0 013.566-2.829c.209-.167.402-.352.577-.552v6.428zm0-8.798c0 .711-.686 1.64-1.23 2.067a517.56 517.56 0 00-3.357 2.654c-.443.36-1.247 1.13-1.833 1.13h-.017c-.586 0-1.39-.77-1.833-1.13a518.102 518.102 0 00-3.356-2.654c-.754-.594-1.23-1.423-1.23-2.377 0-.142.125-.268.267-.268h12.322c.318 0 .267.368.267.578zm1.072-.31c0-.737-.603-1.34-1.34-1.34H4.163c-.738 0-1.34.603-1.34 1.34v9.107c0 .737.602 1.34 1.34 1.34h12.32c.737 0 1.34-.603 1.34-1.34V5.742z"/></svg>