<svg xmlns="http://www.w3.org/2000/svg" fill="none" viewBox="0 0 21 20"><path fill="#3E9CDC" d="M15.18 12.286c0 .65-.123 1.222-.369 1.714s-.577.9-.993 1.222a4.598 4.598 0 01-1.626.826c-.586.164-1.333.246-2.241.246H4.713V3.207h4.623c.96 0 1.687.038 2.18.114.497.07.963.223 1.397.457.469.252.817.59 1.046 1.011.234.422.351.908.351 1.46 0 .638-.16 1.206-.483 1.704a2.794 2.794 0 01-1.319 1.099v.07c.81.17 1.457.519 1.943 1.046.486.522.73 1.228.73 2.118zm-4.21-5.379c0-.21-.055-.427-.167-.65a.961.961 0 00-.5-.483 2.042 2.042 0 00-.774-.15 36.06 36.06 0 00-1.318-.017h-.229v2.768h.413c.563 0 .955-.006 1.178-.017a1.91 1.91 0 00.703-.185c.264-.123.445-.293.545-.51.1-.217.15-.469.15-.756zm.827 5.318c0-.405-.082-.721-.247-.95-.164-.228-.41-.4-.738-.518-.199-.076-.474-.117-.826-.123a43.486 43.486 0 00-1.397-.018h-.607v3.279h.176c.855 0 1.447-.006 1.775-.018.329-.012.662-.09 1.002-.237.3-.13.516-.317.65-.563.141-.252.212-.536.212-.852z"/></svg>